<?xml version="1.0" standalone="no"?>
<!DOCTYPE svg PUBLIC "-//W3C//DTD SVG 20010904//EN"
 "http://www.w3.org/TR/2001/REC-SVG-20010904/DTD/svg10.dtd">
<svg version="1.0" xmlns="http://www.w3.org/2000/svg"
 width="260.000000pt" height="260.000000pt" viewBox="0 0 260.000000 260.000000"
 preserveAspectRatio="xMidYMid meet">
<metadata>
Created by potrace 1.14, written by Peter Selinger 2001-2017
</metadata>
<g transform="translate(0.000000,260.000000) scale(0.100000,-0.100000)"
fill="#000000" stroke="none">
<path d="M1329 1896 c-19 -17 -66 -58 -103 -91 -38 -33 -81 -71 -96 -85 -15
-14 -56 -50 -91 -80 -34 -30 -75 -66 -90 -80 -15 -14 -42 -39 -61 -55 -18 -17
-64 -57 -103 -90 -38 -33 -72 -63 -75 -66 -3 -3 -30 -27 -60 -54 -59 -52 -186
-164 -230 -205 -16 -14 -59 -52 -96 -85 -38 -33 -81 -71 -96 -85 -15 -14 -52
-47 -82 -75 -31 -27 -56 -52 -56 -55 0 -4 222 -5 280 -1 9 1 34 18 57 39 22
20 67 60 98 87 32 28 65 57 74 65 9 9 50 45 91 80 41 36 89 80 107 99 18 19
33 31 33 28 0 -3 20 13 45 36 38 36 118 109 200 182 13 11 43 38 67 60 25 22
78 69 118 105 40 36 80 73 89 83 31 34 31 31 6 -118 -9 -51 -13 -70 -15 -70
-1 0 -3 -11 -5 -25 -2 -14 -6 -38 -9 -55 -4 -16 -9 -46 -11 -65 -3 -19 -8 -46
-12 -60 -6 -28 -9 -46 -18 -105 -3 -22 -7 -47 -10 -55 -2 -8 -7 -31 -10 -50
-12 -70 13 -65 -290 -64 -151 1 -275 0 -275 -1 0 -24 32 -79 65 -110 96 -91
99 -91 400 -89 138 1 260 2 272 3 22 1 26 12 39 96 7 51 20 105 30 129 5 15 4
17 -6 11 -10 -6 -11 -4 -4 6 4 8 9 19 10 24 1 6 5 24 8 40 4 17 9 51 13 78 3
26 9 47 12 47 4 0 7 12 7 28 1 15 4 40 7 56 3 16 9 50 13 75 4 25 9 50 12 55
3 5 6 23 8 40 2 17 5 42 8 56 3 14 8 41 11 60 3 19 8 46 11 60 3 14 7 45 11
70 3 25 8 47 12 50 3 3 7 19 8 35 2 27 7 63 13 90 7 30 -3 32 -148 32 l-149 0
-34 -31z"/>
<path d="M1733 1915 c-12 -6 -18 -22 -18 -43 1 -19 -3 -36 -7 -38 -4 -2 -5
-13 -3 -24 2 -11 0 -20 -5 -20 -4 0 -8 -10 -7 -22 0 -13 -3 -36 -6 -53 -4 -16
-9 -48 -12 -70 -4 -22 -8 -47 -10 -55 -2 -8 -7 -28 -10 -45 -10 -57 -14 -75
-20 -85 -3 -6 -1 -10 6 -10 8 0 8 -4 1 -13 -6 -7 -14 -33 -17 -58 -3 -24 -7
-51 -10 -59 -3 -8 -7 -29 -9 -45 -5 -32 -13 -77 -21 -112 -7 -32 -18 -104 -19
-133 l-1 -25 305 0 c203 -1 320 3 351 11 202 51 318 244 242 401 -15 29 -29
53 -33 53 -3 0 -15 8 -26 18 -20 19 -63 39 -104 48 -49 11 -360 10 -360 -1 0
-6 8 -22 17 -35 52 -76 110 -109 199 -115 73 -5 110 -23 124 -59 7 -20 7 -54
0 -63 -2 -2 -3 -7 -4 -12 -2 -16 -40 -60 -48 -55 -4 3 -8 1 -8 -4 0 -19 -73
-27 -237 -26 -95 1 -177 2 -183 3 -6 1 -6 10 -1 24 4 12 7 30 6 40 -2 9 0 17
4 17 4 0 7 8 7 18 2 24 16 116 19 122 2 3 6 24 9 46 4 22 9 51 12 64 3 14 7
36 10 50 2 14 7 36 9 50 3 14 7 41 10 60 3 19 7 46 11 60 3 14 7 36 9 50 1 14
3 25 5 25 1 0 3 11 5 25 2 14 6 43 10 65 l6 40 -90 0 c-50 1 -99 -4 -108 -10z"/>
</g>
</svg>
