<?xml version="1.0" encoding="UTF-8" standalone="no" ?>
<!DOCTYPE svg PUBLIC "-//W3C//DTD SVG 1.1//EN" "http://www.w3.org/Graphics/SVG/1.1/DTD/svg11.dtd">
<svg xmlns="http://www.w3.org/2000/svg" xmlns:xlink="http://www.w3.org/1999/xlink" version="1.1" width="400" height="400" viewBox="0 0 400 400" xml:space="preserve">
<desc>Created with Fabric.js 3.6.2</desc>
<defs>
</defs>
<g transform="matrix(10 0 0 10 200 200)"  >
<path style="stroke: none; stroke-width: 1; stroke-dasharray: none; stroke-linecap: butt; stroke-dashoffset: 0; stroke-linejoin: miter; stroke-miterlimit: 4; fill: rgb(101,99,255); fill-rule: nonzero; opacity: 1;"  transform=" translate(-12, -12)" d="M 15.71 12.71 a 1 1 0 0 0 0.21 -0.33 a 1 1 0 0 0 0 -0.76 a 1 1 0 0 0 -0.21 -0.33 l -3 -3 a 1 1 0 0 0 -1.42 1.42 L 12.59 11 H 9 a 1 1 0 0 0 0 2 h 3.59 l -1.3 1.29 a 1 1 0 0 0 0 1.42 a 1 1 0 0 0 1.42 0 Z M 22 12 A 10 10 0 1 0 12 22 A 10 10 0 0 0 22 12 Z M 4 12 a 8 8 0 1 1 8 8 A 8 8 0 0 1 4 12 Z" stroke-linecap="round" />
</g>
</svg>